<?xml version="1.0" encoding="UTF-8"?>
<svg version="1.1" xmlns="http://www.w3.org/2000/svg" width="512" height="512">
<path d="M0 0 C1.53766069 -0.00390005 3.07531776 -0.00954611 4.61296642 -0.0167709 C8.80806386 -0.03144221 13.00278274 -0.02139432 17.19786763 -0.00703418 C21.7336959 0.00411921 26.26947296 -0.0078813 30.80529785 -0.01687622 C39.67845709 -0.03078037 48.55147362 -0.02327373 57.42462601 -0.00820064 C67.76398073 0.0086922 78.10330023 0.00544513 88.44266449 0.00170528 C106.8928659 -0.00416797 125.34299897 0.00997808 143.79318237 0.03465271 C161.68578654 0.05857886 179.57829945 0.06565356 197.47091675 0.05516052 C216.97015146 0.04374573 236.46934401 0.04182766 255.96857822 0.05625862 C258.0485394 0.05778441 260.12850058 0.05930477 262.20846176 0.06081963 C263.23176381 0.06157744 264.25506585 0.06233525 265.30937705 0.06311603 C272.51235033 0.06785397 279.71530475 0.06601095 286.91827774 0.06175423 C295.69754893 0.05682262 304.47673392 0.06283419 313.25598539 0.08264852 C317.73318815 0.09250519 322.21025978 0.09764315 326.68746948 0.08975601 C330.78938434 0.08267792 334.89103511 0.08955335 338.99291526 0.10735964 C340.47320419 0.11139031 341.95351737 0.11042755 343.43379714 0.10384078 C359.00156224 0.04052139 370.89922218 3.52994828 382.43136597 14.27854919 C395.64030768 28.45946963 395.08423035 45.39238341 395.01925659 63.54026794 C395.02468226 66.0841156 395.0318074 68.62796011 395.04049683 71.17179871 C395.05679535 77.3425337 395.05447558 83.51301345 395.04284626 89.68375158 C395.03378269 94.70244789 395.03260052 99.72108971 395.03694153 104.73979187 C395.03755446 105.45629524 395.03816739 106.17279861 395.0387989 106.9110142 C395.0400779 108.36694703 395.04137476 109.82287985 395.04268926 111.27881265 C395.05407324 124.90505807 395.04101573 138.53119554 395.0194878 152.15742326 C395.00161878 163.82871196 395.0047235 175.49984148 395.02316284 187.17112732 C395.04460825 200.75131789 395.05297481 214.33141404 395.04071379 227.91161919 C395.0394397 229.36195245 395.03818221 230.81228573 395.03694153 232.26261902 C395.03601588 233.33277943 395.03601588 233.33277943 395.03507152 234.42455924 C395.03162961 239.43249202 395.03742185 244.44036452 395.04685974 249.44828796 C395.05930279 256.19866445 395.05034108 262.94869556 395.02728271 269.69905853 C395.02201061 272.17091119 395.02348359 274.64278921 395.03233337 277.11463165 C395.11052487 301.17996576 395.11052487 301.17996576 390.50167847 310.50120544 C390.056894 311.40511017 389.61210953 312.30901489 389.15384674 313.24031067 C383.2146558 324.62603357 373.32312338 331.16306052 361.50167847 335.50120544 C357.65439582 336.44328524 354.06612921 336.62911856 350.1102972 336.63542652 C348.16273019 336.64211329 348.16273019 336.64211329 346.17581838 336.64893514 C344.73674451 336.64884585 343.29767065 336.64865601 341.8585968 336.64837646 C340.32840715 336.65167682 338.79821838 336.65540275 337.2680307 336.65951794 C333.06110803 336.6695265 328.85419963 336.67325289 324.64726675 336.67590725 C320.11060759 336.67981369 315.5739597 336.68939178 311.03730774 336.69812012 C300.08039786 336.71787471 289.12348707 336.72794937 278.16656384 336.73684791 C273.00532461 336.74123237 267.8440864 336.74659876 262.68284798 336.75183678 C245.52337959 336.76884789 228.36391183 336.78334184 211.2044363 336.79058552 C206.75232886 336.79249537 202.30022143 336.79441571 197.84811401 336.79637146 C196.18831382 336.79709707 196.18831382 336.79709707 194.49498231 336.79783734 C176.57169714 336.80613685 158.64847872 336.83147296 140.7252227 336.86395214 C122.31936314 336.89703365 103.9135375 336.91503526 85.50764805 336.91822976 C75.17522196 336.92039382 64.84289323 336.92912729 54.51049614 336.95469093 C45.71062057 336.9764128 36.91086601 336.98444101 28.11096667 336.97472415 C23.62338519 336.97018381 19.13605331 336.97205021 14.64850616 336.9914856 C10.53444547 337.00914907 6.4208159 337.00809395 2.30675042 336.9925883 C0.82418755 336.99021705 -0.65840542 336.99451061 -2.14092238 337.00641695 C-17.10511269 337.11908265 -29.40918661 333.55068195 -40.75222778 323.50511169 C-48.40819713 315.58764814 -53.61204305 304.96862168 -53.6297493 293.85338306 C-53.63359044 292.94391196 -53.63743159 292.03444086 -53.64138913 291.09741002 C-53.64052265 290.10714887 -53.63965617 289.11688772 -53.63876343 288.09661865 C-53.64173455 287.03767857 -53.64470567 285.97873849 -53.64776683 284.88770932 C-53.65644986 281.33349237 -53.65796175 277.77930912 -53.65945435 274.2250824 C-53.6640828 271.67902555 -53.6691075 269.1329694 -53.67449951 266.58691406 C-53.68762297 259.66527158 -53.69410523 252.74364019 -53.69851017 245.82198739 C-53.7012753 241.49761791 -53.70551316 237.17325065 -53.71001434 232.84888268 C-53.72220525 220.86902285 -53.73250477 208.8891648 -53.73588943 196.9092989 C-53.736109 196.1429112 -53.73632857 195.3765235 -53.73655479 194.58691193 C-53.73677306 193.81872054 -53.73699134 193.05052916 -53.73721623 192.25905925 C-53.7376597 190.70248624 -53.73810626 189.14591322 -53.73855591 187.58934021 C-53.73877734 186.81723098 -53.73899877 186.04512175 -53.73922691 185.24961527 C-53.74317335 172.74393316 -53.76062347 160.23830937 -53.78391543 147.73264978 C-53.80765209 134.88419989 -53.82009235 122.03577923 -53.82125735 109.18730706 C-53.82217284 101.9770456 -53.82789317 94.76686013 -53.84607697 87.55661964 C-53.8631255 80.77276168 -53.8647133 73.98907232 -53.85593796 67.20519066 C-53.85516756 64.71798186 -53.85951066 62.23076532 -53.86939621 59.74357605 C-53.8821194 56.34244971 -53.87623636 52.94183354 -53.86581421 49.54071045 C-53.87387061 48.56160291 -53.88192702 47.58249536 -53.89022756 46.57371789 C-53.79518396 33.26859962 -48.74435978 22.25267918 -39.72097778 12.57151794 C-28.50902769 2.12804949 -14.77864673 -0.10466598 0 0 Z M13.12667847 88.12620544 C10.97759856 92.5896791 10.49208871 96.63141954 11.50167847 101.50120544 C14.75091504 107.13872505 19.15810597 111.41499303 23.76730347 115.96214294 C24.56070129 116.75271088 25.35409912 117.54327881 26.17153931 118.35780334 C28.69357608 120.8686922 31.22249585 123.37251668 33.75167847 125.87620544 C35.46828409 127.58277433 37.18443506 129.28980066 38.90011597 130.99729919 C43.09538586 135.17058022 47.29632091 139.33809112 51.50167847 143.50120544 C50.10342141 146.66738376 48.46343355 148.77575008 46.00167847 151.19651794 C45.28753784 151.90405212 44.57339722 152.6115863 43.83761597 153.34056091 C43.06675659 154.09482361 42.29589722 154.8490863 41.50167847 155.62620544 C40.71019409 156.41011658 39.91870972 157.19402771 39.10324097 158.00169373 C35.71743708 161.35478776 32.31994783 164.695954 28.92355347 168.03831482 C26.44554523 170.48021711 23.97349594 172.92803932 21.50167847 175.37620544 C20.73081909 176.13046814 19.95995972 176.88473083 19.16574097 177.66184998 C18.45160034 178.36938416 17.73745972 179.07691833 17.00167847 179.80589294 C16.05808472 180.73377625 16.05808472 180.73377625 15.09542847 181.68040466 C11.41072509 185.89004281 11.06124706 189.59537047 11.18917847 195.03245544 C11.82139507 200.0269666 14.53003748 202.62210169 18.12667847 205.87620544 C22.59015212 208.02528535 26.63189256 208.51079521 31.50167847 207.50120544 C35.75228228 204.91737759 39.2270456 202.02819242 42.74093628 198.52073669 C43.22627838 198.03889923 43.71162048 197.55706177 44.21166992 197.06062317 C45.79774659 195.48327415 47.37648274 193.89881226 48.95480347 192.31370544 C50.06215736 191.20770034 51.16980787 190.10199215 52.27774048 188.99656677 C54.59067652 186.68656946 56.89998117 184.37301838 59.20675659 182.05686951 C62.16120698 179.09099859 65.12458216 176.13423331 68.09071732 173.18005371 C70.37629412 170.90170649 72.65708294 168.61861415 74.93645477 166.33406067 C76.02741534 165.24176804 77.11985776 164.15095336 78.21381378 163.06166077 C79.74077124 161.53978949 81.2611594 160.01164177 82.77999878 158.48167419 C83.64570496 157.61437683 84.51141113 156.74707947 85.40335083 155.85350037 C88.65819189 152.20471551 89.80083156 149.49557667 89.87667847 144.62620544 C89.90503784 143.80378357 89.93339722 142.98136169 89.96261597 142.13401794 C88.95952988 136.40452624 84.5002514 132.24828947 80.52120972 128.26194763 C80.03937225 127.77660553 79.55753479 127.29126343 79.06109619 126.79121399 C77.48374717 125.20513732 75.89928528 123.62640117 74.31417847 122.04808044 C73.20817336 120.94072655 72.10246517 119.83307605 70.99703979 118.72514343 C68.68704248 116.41220739 66.3734914 114.10290274 64.05734253 111.79612732 C61.09147161 108.84167693 58.13470633 105.87830175 55.18052673 102.9121666 C52.90217952 100.6265898 50.61908717 98.34580097 48.33453369 96.06642914 C47.24224106 94.97546858 46.15142638 93.88302615 45.06213379 92.78907013 C43.54026251 91.26211268 42.01211479 89.74172451 40.48214722 88.22288513 C39.61484985 87.35717896 38.74755249 86.49147278 37.85397339 85.59953308 C33.35173344 81.58338084 29.87189397 81.04984743 23.97042847 81.18870544 C18.97591731 81.82092205 16.38078222 84.52956445 13.12667847 88.12620544 Z M109.50167847 182.50120544 C106.42775209 187.3935108 106.89774651 192.9316107 107.50167847 198.50120544 C109.63957761 203.01454809 111.95430147 205.44405871 116.50167847 207.50120544 C120.68495754 208.35708309 124.66657105 208.63168542 128.93087769 208.64646912 C130.18593109 208.65284897 131.4409845 208.65922882 132.73406982 208.665802 C134.09150148 208.66733098 135.44893365 208.66844478 136.80636597 208.66917419 C138.21352166 208.67239202 139.62067702 208.67575648 141.02783203 208.67926025 C143.97143326 208.68523203 146.91500521 208.68710215 149.85861206 208.68650818 C153.61308913 208.68640664 157.36737677 208.70005951 161.12180901 208.71728039 C164.02676236 208.72844945 166.9316706 208.73042589 169.83664322 208.72989845 C171.21999896 208.73107115 172.60335615 208.73545264 173.98669052 208.74323082 C186.49249009 209.21348409 186.49249009 209.21348409 197.37667847 204.06370544 C201.6143454 198.95357767 201.93565945 195.94445553 201.81808472 189.45433044 C201.39399822 185.49618985 200.23102787 183.37808725 197.50167847 180.50120544 C192.23251009 176.479998 186.50791802 176.37825246 180.07247925 176.35594177 C178.81742584 176.34956192 177.56237244 176.34318207 176.26928711 176.33660889 C174.91185546 176.33507991 173.55442328 176.33396611 172.19699097 176.33323669 C170.78983527 176.33001887 169.38267991 176.32665441 167.9755249 176.32315063 C165.03192368 176.31717885 162.08835173 176.31530874 159.14474487 176.31590271 C155.3902678 176.31600425 151.63598016 176.30235138 147.88154793 176.2851305 C144.97659458 176.27396143 142.07168633 176.271985 139.16671371 176.27251244 C137.78335797 176.27133974 136.40000078 176.26695825 135.01666641 176.25918007 C121.13068076 175.85912717 121.13068076 175.85912717 109.50167847 182.50120544 Z " fill="#000000" transform="translate(85.49832153320313,47.49879455566406)"/>
<path d="M0 0 C47.85 0 95.7 0 145 0 C147.31 4.62 149.62 9.24 152 14 C157.63406457 22.01289183 166.41314886 27.70477668 176 30 C178.52071838 30.33774331 181.0362683 30.65022593 183.5625 30.9375 C189.42532037 31.65503921 193.40475495 32.24025405 198 36 C202.06249792 41.2419328 201.75630395 47.66064331 201 54 C199.77693625 57.93867987 197.96071368 60.37393019 194.45368099 62.65936375 C189.96517445 64.4016945 186.13782152 64.41968659 181.36610413 64.38768005 C180.40219818 64.39306559 179.43829224 64.39845113 178.44517702 64.40399987 C175.21861081 64.41829559 171.99245391 64.4111716 168.76586914 64.40405273 C166.45124481 64.40975543 164.1366233 64.4167193 161.82200623 64.42485046 C155.53692751 64.4428077 149.25198821 64.44160865 142.96689153 64.43590808 C137.72071209 64.43282003 132.47455957 64.43890439 127.22838396 64.44494683 C114.14519974 64.4598023 101.0620939 64.45617143 87.97890996 64.44408352 C76.6222707 64.43415114 65.26579436 64.44709236 53.90918023 64.47101771 C42.24155921 64.49541265 30.57402083 64.50461596 18.90637487 64.49836498 C12.35851765 64.49499189 5.81079505 64.49743413 -0.73704338 64.51461601 C-6.89389215 64.53006653 -13.05042948 64.52615027 -19.20726585 64.50731087 C-21.46674794 64.50361983 -23.72625301 64.50674838 -25.98571396 64.51719666 C-29.07054308 64.53037245 -32.15433602 64.51888853 -35.23912048 64.50120544 C-36.13290167 64.51081045 -37.02668286 64.52041546 -37.94754833 64.53031152 C-43.78855333 64.46143727 -47.20118829 63.38035101 -52 60 C-56.27524895 54.621461 -55.74035805 47.53844303 -55 41 C-52.68324165 35.83184676 -50.10685754 34.17828047 -45 32 C-41.5546875 31.4453125 -41.5546875 31.4453125 -37.875 31.125 C-25.33017841 29.70433567 -16.53578848 25.32197953 -8 16 C-5.36 10.72 -2.72 5.44 0 0 Z " fill="#000000" transform="translate(183,416)"/>
</svg>
